# xmcd
#
# Track frame offsets:
#	150
#	10810
#	22801
#	33583
#	47556
#	57881
#	70469
#	84761
#	94931
#	107793
#	117741
#	130494
#	143066
#	158100
#	175110
#	191432
#	205904
#	219111
#
# Disc length: 3058 seconds
#
# Revision: 1
# Processed by: cddbd v1.4PL0 Copyright (c) Steve Scherf et al.
# Submitted via: EasyCDDAExtractor 5.1.0
#
DISCID=f30bf012
DTITLE=Kirk Sutphin and Friends - Grandpa's Favorites
DYEAR=1900
DGENRE=
TTITLE0=Fire on the Mountain 
TTITLE1=Peacock Rag
TTITLE2=Sweet Marie 
TTITLE3=Chinese Breakdown 
TTITLE4=Let Me Fall 
TTITLE5=Rachel 
TTITLE6=Prison Sorrows 
TTITLE7=Peek-a-boo Waltz 
TTITLE8=John Hardy
TTITLE9=Don't Drink Nothin' But Corn
TTITLE10=Sunny Home in Dixie 
TTITLE11=Lonesome Road Blues 
TTITLE12=John Henry 
TTITLE13=Honeysuckle 
TTITLE14=When I Can Read My Title Clear 
TTITLE15=Yellow Rose of Texas 
TTITLE16=Lee County Blues 
TTITLE17=Home Sweet Home - Silver Bells 
EXTD=
EXTT0=
EXTT1=
EXTT2=
EXTT3=
EXTT4=
EXTT5=
EXTT6=
EXTT7=
EXTT8=
EXTT9=
EXTT10=
EXTT11=
EXTT12=
EXTT13=
EXTT14=
EXTT15=
EXTT16=
EXTT17=
PLAYORDER=
